<svg width="64" height="64" viewBox="0 0 64 64" fill="none" xmlns="http://www.w3.org/2000/svg">
<circle cx="32" cy="32" r="32" fill="white"/>
<path d="M38.9994 35.9995C38.3325 35.9992 37.6723 36.1328 37.058 36.3924C36.4436 36.6519 35.8876 37.032 35.4228 37.5103L29.6618 33.8075C30.1149 32.6454 30.1149 31.3555 29.6618 30.1934L35.4228 26.4906C36.2882 27.377 37.4518 27.9106 38.6882 27.9878C39.9246 28.065 41.1456 27.6803 42.1145 26.9084C43.0834 26.1365 43.7311 25.0324 43.9322 23.81C44.1332 22.5877 43.8732 21.3342 43.2026 20.2926C42.532 19.2511 41.4985 18.4956 40.3025 18.1728C39.1066 17.8499 37.8333 17.9826 36.7297 18.5452C35.626 19.1077 34.7705 20.0601 34.3291 21.2176C33.8877 22.375 33.8918 23.6552 34.3406 24.8098L28.5795 28.5126C27.8858 27.8004 26.9954 27.3112 26.0222 27.1076C25.049 26.9041 24.0373 26.9953 23.1162 27.3698C22.1951 27.7442 21.4067 28.3848 20.8516 29.2097C20.2965 30.0345 20 31.0062 20 32.0005C20 32.9947 20.2965 33.9664 20.8516 34.7913C21.4067 35.6161 22.1951 36.2567 23.1162 36.6312C24.0373 37.0056 25.049 37.0969 26.0222 36.8933C26.9954 36.6897 27.8858 36.2006 28.5795 35.4883L34.3406 39.1911C33.9546 40.1866 33.8975 41.2794 34.1776 42.3096C34.4577 43.3398 35.0603 44.2533 35.8971 44.9163C36.7339 45.5792 37.761 45.9569 38.8279 45.9939C39.8949 46.0309 40.9457 45.7254 41.8264 45.122C42.7072 44.5186 43.3716 43.6491 43.7224 42.6408C44.0732 41.6324 44.092 40.5383 43.776 39.5185C43.46 38.4988 42.8258 37.607 41.9662 36.9737C41.1067 36.3405 40.067 35.9991 38.9994 35.9995ZM38.9994 20.0035C39.5926 20.0035 40.1725 20.1794 40.6657 20.509C41.1589 20.8385 41.5433 21.3069 41.7703 21.855C41.9973 22.403 42.0567 23.0061 41.941 23.5879C41.8253 24.1697 41.5396 24.7041 41.1202 25.1235C40.7007 25.543 40.1663 25.8286 39.5845 25.9444C39.0027 26.0601 38.3997 26.0007 37.8516 25.7737C37.3036 25.5467 36.8352 25.1623 36.5056 24.669C36.1761 24.1758 36.0002 23.5959 36.0002 23.0027C36.0002 22.2073 36.3162 21.4444 36.8786 20.882C37.4411 20.3195 38.204 20.0035 38.9994 20.0035ZM25.0029 34.9997C24.4097 34.9997 23.8299 34.8238 23.3367 34.4942C22.8434 34.1647 22.459 33.6963 22.232 33.1482C22.005 32.6002 21.9456 31.9971 22.0613 31.4153C22.1771 30.8335 22.4627 30.2991 22.8822 29.8797C23.3016 29.4602 23.836 29.1746 24.4178 29.0589C24.9996 28.9431 25.6027 29.0025 26.1507 29.2295C26.6987 29.4565 27.1672 29.841 27.4967 30.3342C27.8263 30.8274 28.0022 31.4073 28.0022 32.0005C28.0022 32.7959 27.6862 33.5588 27.1237 34.1212C26.5613 34.6837 25.7984 34.9997 25.0029 34.9997ZM38.9994 43.9974C38.4062 43.9974 37.8263 43.8215 37.3331 43.492C36.8399 43.1624 36.4555 42.694 36.2285 42.1459C36.0015 41.5979 35.9421 40.9949 36.0578 40.4131C36.1735 39.8313 36.4592 39.2969 36.8786 38.8774C37.2981 38.458 37.8325 38.1723 38.4143 38.0566C38.9961 37.9408 39.5991 38.0002 40.1472 38.2272C40.6952 38.4543 41.1636 38.8387 41.4932 39.3319C41.8227 39.8251 41.9986 40.405 41.9986 40.9982C41.9986 41.7936 41.6827 42.5565 41.1202 43.119C40.5577 43.6814 39.7949 43.9974 38.9994 43.9974Z" fill="#222222"/>
</svg>
