<svg width="64" height="64" viewBox="0 0 64 64" fill="none" xmlns="http://www.w3.org/2000/svg">
<circle cx="32" cy="32" r="32" fill="white"/>
<path d="M38.25 20C35.6688 20 33.4088 21.11 32 22.9862C30.5912 21.11 28.3313 20 25.75 20C23.6953 20.0023 21.7254 20.8196 20.2725 22.2725C18.8196 23.7254 18.0023 25.6953 18 27.75C18 36.5 30.9738 43.5825 31.5262 43.875C31.6719 43.9533 31.8346 43.9943 32 43.9943C32.1654 43.9943 32.3281 43.9533 32.4737 43.875C33.0262 43.5825 46 36.5 46 27.75C45.9977 25.6953 45.1804 23.7254 43.7275 22.2725C42.2746 20.8196 40.3047 20.0023 38.25 20ZM32 41.85C29.7175 40.52 20 34.4613 20 27.75C20.002 26.2256 20.6084 24.7642 21.6863 23.6863C22.7642 22.6084 24.2256 22.002 25.75 22C28.1812 22 30.2225 23.295 31.075 25.375C31.1503 25.5584 31.2785 25.7153 31.4432 25.8257C31.6079 25.9361 31.8017 25.995 32 25.995C32.1983 25.995 32.3921 25.9361 32.5568 25.8257C32.7215 25.7153 32.8497 25.5584 32.925 25.375C33.7775 23.2912 35.8188 22 38.25 22C39.7744 22.002 41.2358 22.6084 42.3137 23.6863C43.3916 24.7642 43.998 26.2256 44 27.75C44 34.4513 34.28 40.5188 32 41.85Z" fill="black"/>
</svg>
