<svg width="120" height="40" viewBox="0 0 120 40" fill="none" xmlns="http://www.w3.org/2000/svg">
<path d="M28.6035 19.3635C25.5515 17.0983 21.0348 14.45 19.9501 13.8213C19.9923 14.6233 19.9294 15.4443 19.7648 16.2659C19.6564 16.8069 19.5078 17.3182 19.3271 17.8039C22.4668 19.9119 26.6315 22.6904 28.113 23.6024L28.2281 23.6705V23.6658C28.2281 20.2829 28.5995 19.3763 28.5995 19.3763C28.6002 19.3722 28.6022 19.3682 28.6035 19.3635Z" fill="white"/>
<path d="M20.3254 8.96132C19.1477 7.88202 16.9562 6.18213 13.0036 6.00944C12.9567 6.00742 12.8825 6.00337 12.7299 6C12.7299 6 15.2191 6.42497 17.0927 8.01289C19.5913 10.1303 20.3802 13.1895 19.7653 16.2655C18.7214 21.4866 14.0615 24.1254 10.3966 24.178C9.16201 24.1956 7.85316 23.8293 6.74438 23.2107C6.74438 23.2107 7.70394 24.0991 8.62937 24.5814C9.89606 25.2412 11.4893 25.8705 14.0521 25.8773C17.717 25.8874 22.5857 23.2033 23.6149 17.9782C24.4399 13.7939 21.6723 10.1958 20.3254 8.96132Z" fill="white"/>
<path d="M28.2271 34.6693L28.2278 23.6659C28.2278 20.2829 28.5992 19.3763 28.5992 19.3763C29.9997 14.6294 34.5184 12.2503 37.8902 12.286C39.5765 12.3042 40.9496 13.0631 41.7733 13.5616C41.7733 13.5616 39.181 10.545 34.2012 10.4519C30.9479 10.3912 26.751 12.6166 25.1296 16.9816C25.1296 16.9816 24.4772 18.4434 24.5087 21.2395L24.5334 31.9016C24.5334 31.9022 24.4397 34.9061 28.2271 34.6693Z" fill="white"/>
<path d="M16.0749 8.18066C15.3254 7.73478 15.1287 7.67541 14.2882 7.34825C13.4585 7.02514 12.505 6.80591 11.6853 6.6602C10.2988 6.41264 9.16994 6.51854 8.68883 6.61703C8.36429 6.68381 8.0344 6.78095 7.71522 6.8909C6.95106 7.16949 6.34615 7.45146 5.93262 7.63224C5.93262 7.63224 6.40503 11.1379 7.67574 10.7777C8.41381 10.5686 10.8983 8.40596 16.5787 10.0033C16.5787 10.0033 17.4412 10.257 18.5848 10.7912C18.5868 10.7912 18.5888 10.7912 18.5908 10.7919C18.5922 10.7919 18.5935 10.7926 18.5942 10.7932C18.5092 10.6583 17.8575 9.24174 16.0749 8.18066Z" fill="white"/>
<path d="M42.233 23.0657C42.0791 23.2175 40.7649 24.033 38.4684 23.9676C36.7828 23.9183 35.2083 23.7402 32.7566 22.2252L32.5645 22.1085C31.2396 21.3192 30.2874 20.6508 29.6477 20.1671L29.5761 20.1145C29.4202 19.9883 29.2576 19.8602 29.0883 19.73C29 20.0929 28.7959 21.1958 28.7959 23.6654V23.9932C29.3386 24.2927 30.0111 24.6381 30.7184 24.9383C33.9918 26.3299 38.4242 26.1997 40.9295 24.379C41.7084 23.832 42.3294 22.9706 42.233 23.0657Z" fill="white"/>
<path d="M15.5097 15.2332C15.5097 15.2332 16.9323 16.1952 18.842 17.4782C18.9886 17.0654 19.113 16.6249 19.2074 16.1527C19.3907 15.2339 19.4409 14.3469 19.3633 13.5043C18.84 13.2339 18.2084 12.931 17.5472 12.6659C14.2745 11.3491 10.1672 11.3242 7.13935 13.3715C6.60939 13.7033 6.03125 14.3428 6.03125 14.3428C6.03125 14.3428 9.68144 11.5555 15.5097 15.2332Z" fill="white"/>
<path d="M41.4969 14.4152C41.0593 14.086 40.2309 13.5288 39.3228 13.2509C38.2656 12.9271 37.5014 12.9406 37.1307 12.9514C36.5405 12.9689 35.9845 13.0775 35.7048 13.1618L35.7014 13.1632C39.7966 14.6135 39.9967 19.0265 38.4462 21.5817C37.9712 22.3635 37.397 22.8971 36.8577 23.2607H36.8584C38.463 23.4044 40.3312 23.2796 41.6682 22.4222C42.9389 21.6067 43.6395 20.4397 43.7553 18.876C43.78 18.5428 43.7646 18.3802 43.7559 18.2595C43.6944 17.3967 43.2661 16.1137 42.5588 15.3717C42.1393 14.9299 41.893 14.7127 41.4969 14.4152Z" fill="white"/>
<path d="M11.4207 23.5077C11.5238 23.4983 11.8737 23.4389 11.9346 23.4288C11.3652 23.1738 10.9965 22.8622 10.9965 22.8622C9.08472 21.2021 8.33594 18.4263 9.85624 15.5398C9.96531 15.3348 10.3507 14.6973 11.1055 14.0349C9.33565 13.7441 7.57111 14.2352 6.3526 15.1283C5.44657 15.7921 4.90724 16.551 4.66702 17.3355C4.59341 17.5756 4.50575 18.0526 4.5004 18.4721C4.49639 18.7636 4.52115 19.1865 4.6349 19.5933C4.94137 20.7866 5.9297 21.6709 6.94345 22.3306C7.1636 22.4736 7.54301 22.6881 8.0268 22.9195C9.02784 23.3991 10.1045 23.6292 11.4207 23.5077Z" fill="white"/>
<path d="M72.6477 15.5099H74.2396L74.2524 16.7775L74.3937 16.5686C74.5477 16.3457 74.7403 16.0532 75.2024 15.7467C75.5491 15.5378 75.9727 15.3149 76.7687 15.3149C76.8842 15.3149 77.2437 15.3428 77.5646 15.4264C78.2964 15.6353 78.8227 16.2064 79.0281 16.9864C79.0795 17.1675 79.1052 18.045 79.1308 19.3404V23.2127H78.797C77.7572 23.1988 77.5389 22.6973 77.4747 22.3212L77.4619 18.8529C77.4491 18.1286 77.3464 17.3486 76.7815 16.9864C76.6916 16.9307 76.4606 16.8053 76.0754 16.8053C75.8187 16.8053 75.1896 16.875 74.7788 17.5436C74.3937 18.1425 74.3808 18.8947 74.368 19.4937L74.3551 23.2127H72.6605L72.6477 15.5099Z" fill="white"/>
<path d="M98.2209 15.5099H99.8L99.8257 16.7775L99.9669 16.5686C100.108 16.3457 100.314 16.0532 100.776 15.7467C101.122 15.5378 101.546 15.3149 102.342 15.3149C102.457 15.3149 102.817 15.3428 103.138 15.4264C103.87 15.6353 104.396 16.2064 104.601 16.9864C104.64 17.1675 104.678 18.045 104.691 19.3404V23.2127H104.37C103.33 23.1988 103.112 22.6973 103.048 22.3212H103.035V18.8529C103.022 18.1286 102.92 17.3486 102.342 16.9864C102.265 16.9307 102.021 16.8053 101.636 16.8053C101.392 16.8053 100.763 16.875 100.352 17.5436C99.9669 18.1425 99.9541 18.8947 99.9412 19.4937L99.9284 23.2127H98.2338L98.2209 15.5099Z" fill="white"/>
<path d="M111.995 23.2824C111.431 23.2824 110.994 23.2406 110.018 22.9898L109.916 22.9481L109.954 22.6555V22.6416C110.044 22.0427 110.391 21.6944 110.943 21.6944L110.981 21.7084C111.247 21.7734 111.508 21.8059 111.764 21.8059C112.676 21.8059 113.087 21.3323 113.087 20.9005C113.061 20.4965 112.779 20.2876 112.56 20.1762C112.291 20.0369 112.021 19.9394 111.764 19.8419C111.52 19.7583 111.289 19.6747 111.071 19.5633C110.609 19.3404 109.852 18.7972 109.852 17.6272C109.852 17.46 109.877 17.0143 110.121 16.5546C110.327 16.1785 111.007 15.3149 112.676 15.3149C113.305 15.3149 113.793 15.3985 114.422 15.5517L114.499 15.5796V15.6632C114.499 15.7607 114.499 15.9 114.486 16.0393C114.448 16.3735 114.204 16.7775 113.947 16.7775C113.938 16.7775 113.93 16.7775 113.921 16.7775C113.844 16.7636 113.78 16.7496 113.716 16.7357C113.549 16.7078 113.343 16.6521 112.933 16.6521C112.445 16.6521 112.15 16.7775 111.983 16.875C111.585 17.0979 111.559 17.4461 111.559 17.5575C111.559 17.9754 111.893 18.1286 112.137 18.2261C112.381 18.3375 112.625 18.4211 112.881 18.5047C113.164 18.6022 113.446 18.6997 113.729 18.839C114.435 19.2011 114.82 19.8976 114.82 20.7891C114.82 21.2626 114.704 21.9452 114.127 22.4745C113.613 22.962 112.945 23.2824 111.995 23.2824Z" fill="white"/>
<path d="M109.146 23.0456C108.774 23.1431 108.478 23.2127 108.068 23.2127C107.798 23.2127 106.886 23.1709 106.347 22.572C105.744 21.9034 105.757 20.7752 105.77 19.8698V15.2453L105.782 14.7021C105.782 13.9221 106.206 13.4345 107.092 13.1978H107.105H107.438V15.315H109.018C109.018 15.315 109.159 16.6522 108.581 16.68H107.426V20.2041V20.2598C107.451 20.8727 107.361 21.792 108.568 21.6945C108.568 21.6945 109.223 21.6666 109.146 23.0456Z" fill="white"/>
<path fill-rule="evenodd" clip-rule="evenodd" d="M51.7733 23.2127C51.4267 23.2127 50.2328 23.1431 49.6422 22.0984C49.5395 21.9452 49.3213 21.5134 49.3213 20.9005C49.3213 20.2737 49.5652 19.8558 49.6679 19.6608C50.374 18.5604 51.8504 18.435 52.8902 18.435C53.2625 18.435 53.6348 18.449 53.9558 18.4629H54.0328V18.3933C54.0199 18.1843 53.9943 17.7665 53.9172 17.5297C53.7889 17.1814 53.4294 16.5964 52.3895 16.5964C51.7476 16.5964 51.2855 16.7914 50.9902 16.9168C50.8747 16.9586 50.7848 17.0004 50.7078 17.0143C50.6907 17.0236 50.6735 17.0282 50.6564 17.0282C50.4382 17.0282 50.297 16.6939 50.2071 16.0114L50.1814 15.8164L50.2585 15.7885C51.1443 15.4682 51.6835 15.3149 52.5693 15.3149C52.749 15.3149 53.1598 15.3149 53.622 15.4403C54.8544 15.7467 55.2652 16.5268 55.4064 16.9586C55.5477 17.4043 55.5605 17.864 55.5733 18.7833L55.599 23.2266H54.8287C54.4051 23.2266 54.1612 22.6138 54.0585 22.2655C53.8017 22.6416 53.147 23.2127 51.8247 23.2127H51.7733ZM53.2882 19.5494C52.8004 19.5494 52.1071 19.5912 51.6193 19.9115C51.3754 20.0647 51.2726 20.2876 51.2085 20.3851C51.1956 20.413 51.0801 20.608 51.0801 20.9005C51.0801 21.0398 51.1186 21.2069 51.1828 21.3601C51.4267 21.9452 52.0172 22.0148 52.2612 22.0148C52.4024 22.0148 53.147 21.973 53.6348 21.2626C53.9814 20.7612 54.02 20.2737 54.0585 19.7026L54.0713 19.5772L53.9301 19.5633C53.7375 19.5633 53.5193 19.5494 53.2882 19.5494Z" fill="white"/>
<path d="M63.8538 23.213C63.3146 23.213 62.5315 22.7394 62.5315 21.8619V15.5103H64.2518V23.213H63.8538Z" fill="white"/>
<path d="M96.5645 23.213C96.0253 23.213 95.2422 22.7394 95.2422 21.8619V15.5103H96.9625V23.213H96.5645Z" fill="white"/>
<path d="M63.0324 14.5769C62.981 14.5629 62.9682 14.5212 62.9554 14.4933C62.9297 14.4515 62.904 14.3819 62.8783 14.2983C62.8783 14.2565 62.8527 14.1869 62.8527 14.1729L62.8398 14.159V14.1451C62.8313 14.1451 62.827 14.1451 62.827 14.1451C62.7885 14.1311 62.75 14.0894 62.7371 14.0615C62.6858 14.0476 62.6216 14.0197 62.5959 14.0058L62.5702 13.9919V13.9779C62.5317 13.9501 62.5189 13.9222 62.5189 13.8943C62.506 13.8804 62.4804 13.8665 62.4675 13.8247L62.4419 13.7829V13.769L62.429 13.7551L62.4162 13.7133C62.4162 13.6715 62.429 13.6297 62.4547 13.6018C62.429 13.5647 62.4205 13.5229 62.429 13.4765C62.4205 13.4765 62.4162 13.4765 62.4162 13.4765L62.4033 13.4625V13.4486C62.3777 13.4068 62.3648 13.3093 62.352 13.0168C62.3392 12.975 62.3392 12.9332 62.3392 12.9054L62.3135 12.8497L62.3648 12.8079C62.3777 12.78 62.4033 12.7243 62.4419 12.7104C62.4504 12.6918 62.4633 12.6732 62.4804 12.6547C62.4932 12.6268 62.5317 12.5989 62.5831 12.5989C62.6087 12.5989 62.6387 12.6082 62.6729 12.6268C62.6815 12.6082 62.6943 12.5943 62.7114 12.585L62.7243 12.5711C62.7328 12.5618 62.7414 12.5525 62.75 12.5432V12.4875L62.827 12.4597H62.8527C62.8612 12.4597 62.8698 12.4597 62.8783 12.4597C62.8783 12.4411 62.8869 12.4225 62.904 12.4039C62.904 12.3761 62.9169 12.3343 62.9554 12.3064C62.981 12.2879 63.0024 12.2786 63.0196 12.2786C63.0281 12.26 63.041 12.2461 63.0581 12.2368L63.0837 12.2229H63.0966C63.1094 12.2089 63.1608 12.1811 63.1864 12.1532C63.2378 12.1114 63.2763 12.0836 63.3148 12.0696C63.3405 12.0557 63.379 12.0279 63.4175 12.0279H63.4304H63.4432C63.456 12.0139 63.4817 12 63.5074 12C63.5331 12 63.5588 12.0093 63.5844 12.0279L63.5973 12.0139L63.6615 12.0418C63.67 12.0511 63.6828 12.065 63.7 12.0836H63.7128C63.7299 12.0929 63.7428 12.1068 63.7513 12.1254C63.7642 12.1254 63.8155 12.1254 63.8155 12.1254L63.854 12.1671C63.8669 12.195 63.8669 12.2229 63.8669 12.2507C63.8669 12.2507 63.8669 12.2554 63.8669 12.2647C63.884 12.2739 63.8968 12.2832 63.9054 12.2925C63.9054 12.2925 63.9097 12.2972 63.9182 12.3064H63.931L63.9567 12.3482C63.9653 12.3668 63.9738 12.3807 63.9824 12.39L63.9952 12.4039C63.9952 12.4132 63.9995 12.4225 64.0081 12.4318C64.0594 12.4736 64.0851 12.5014 64.0979 12.5432C64.1108 12.5572 64.1493 12.5989 64.175 12.6129C64.2263 12.6686 64.2392 12.6965 64.252 12.7243C64.252 12.7382 64.2777 12.7661 64.2777 12.7661L64.2905 12.794V12.8079C64.2905 12.8357 64.329 12.9472 64.3419 12.9611L64.3547 12.989C64.3547 12.9982 64.359 13.0075 64.3675 13.0168L64.4189 13.0586L64.3932 13.1004C64.3932 13.1143 64.406 13.1283 64.406 13.1283C64.4446 13.1561 64.4574 13.2258 64.4702 13.2675V13.2954V13.3233C64.4189 13.6576 64.3076 13.8758 64.1365 13.9779C64.1193 13.9872 64.1022 13.9919 64.0851 13.9919C64.0765 14.0104 64.0594 14.029 64.0338 14.0476C64.0209 14.0615 63.9952 14.0754 63.9696 14.0754C63.9524 14.0754 63.9396 14.0708 63.931 14.0615C63.9139 14.0615 63.9011 14.0615 63.8925 14.0615C63.884 14.0615 63.8797 14.0615 63.8797 14.0615C63.8669 14.1033 63.854 14.1311 63.8412 14.1311L63.7898 14.1869L63.7642 14.1729C63.747 14.1729 63.7342 14.1729 63.7256 14.1729L63.7128 14.1869C63.6957 14.1961 63.6786 14.2054 63.6615 14.2147C63.6486 14.2844 63.6358 14.3819 63.5459 14.3958C63.5288 14.4051 63.5117 14.4097 63.4946 14.4097C63.4774 14.4283 63.4603 14.4376 63.4432 14.4376C63.4432 14.4794 63.4304 14.5212 63.3919 14.549C63.3533 14.5769 63.2763 14.5769 63.2378 14.5908C63.2207 14.5908 63.2036 14.5908 63.1864 14.5908C63.1693 14.5908 63.1522 14.5908 63.1351 14.5908C63.1265 14.5908 63.1223 14.5908 63.1223 14.5908L63.0581 14.6047L63.0324 14.5769Z" fill="white"/>
<path d="M95.7433 14.5769C95.692 14.5629 95.6663 14.5212 95.6663 14.4933C95.6278 14.4515 95.615 14.3819 95.5893 14.2983C95.5764 14.2565 95.5636 14.1869 95.5508 14.1729V14.159L95.5379 14.1451C95.4994 14.1311 95.4609 14.0894 95.4352 14.0615C95.3967 14.0476 95.3325 14.0197 95.3068 14.0058L95.2812 13.9919L95.2683 13.9779C95.2427 13.9501 95.2298 13.9222 95.217 13.8943C95.2041 13.8804 95.1913 13.8665 95.1656 13.8247L95.1528 13.7829V13.769L95.14 13.7551L95.1271 13.7133C95.1143 13.6715 95.14 13.6297 95.1528 13.6018C95.1357 13.5647 95.1271 13.5229 95.1271 13.4765L95.1143 13.4625V13.4486C95.0886 13.4068 95.0758 13.3093 95.0501 13.0168C95.0501 12.975 95.0501 12.9332 95.0501 12.9054L95.0244 12.8497L95.0758 12.8079C95.0886 12.78 95.1143 12.7243 95.1528 12.7104C95.1614 12.6918 95.1699 12.6732 95.1785 12.6547C95.2041 12.6268 95.2427 12.5989 95.2812 12.5989C95.3197 12.5989 95.3454 12.6129 95.3839 12.6268C95.3924 12.6082 95.4053 12.5943 95.4224 12.585L95.4352 12.5711C95.4438 12.5618 95.4481 12.5525 95.4481 12.5432V12.4875L95.5379 12.4597H95.5636C95.5722 12.4597 95.5807 12.4597 95.5893 12.4597C95.5893 12.4411 95.5936 12.4225 95.6021 12.4039C95.615 12.3761 95.615 12.3343 95.6663 12.3064C95.6834 12.2879 95.7048 12.2786 95.7305 12.2786C95.7391 12.26 95.7519 12.2461 95.769 12.2368L95.7947 12.2229C95.8204 12.2089 95.8589 12.1811 95.8974 12.1532C95.9487 12.1114 95.9873 12.0836 96.0258 12.0696C96.0514 12.0557 96.0771 12.0279 96.1285 12.0279H96.1413C96.167 12.0139 96.1927 12 96.2183 12C96.244 12 96.2654 12.0093 96.2825 12.0279L96.2954 12.0139L96.3596 12.0418C96.3767 12.0511 96.3938 12.065 96.4109 12.0836H96.4237C96.4409 12.0929 96.4537 12.1068 96.4623 12.1254H96.5264L96.5521 12.1671C96.5778 12.195 96.5778 12.2229 96.5778 12.2507C96.5778 12.2507 96.5778 12.2554 96.5778 12.2647C96.5949 12.2739 96.6078 12.2832 96.6163 12.2925C96.6163 12.2925 96.6163 12.2972 96.6163 12.3064H96.642L96.6677 12.3482C96.6762 12.3668 96.6848 12.3807 96.6933 12.39L96.7062 12.4039C96.7062 12.4132 96.7105 12.4225 96.719 12.4318C96.7704 12.4736 96.796 12.5014 96.8089 12.5432C96.8217 12.5572 96.8602 12.5989 96.8859 12.6129C96.9373 12.6686 96.9501 12.6965 96.9629 12.7243C96.9629 12.7382 96.9758 12.7661 96.9886 12.7661L97.0014 12.794V12.8079C97.0014 12.8357 97.04 12.9472 97.04 12.9611L97.0528 12.989C97.0614 12.9982 97.0699 13.0075 97.0785 13.0168L97.117 13.0586L97.1041 13.1004C97.1041 13.1143 97.1041 13.1283 97.1041 13.1283C97.1555 13.1561 97.1683 13.2258 97.1812 13.2675V13.2954V13.3233C97.1298 13.6576 97.0143 13.8758 96.8346 13.9779C96.826 13.9872 96.8132 13.9919 96.796 13.9919C96.7875 14.0104 96.7704 14.029 96.7447 14.0476C96.7319 14.0615 96.7062 14.0754 96.6805 14.0754C96.6634 14.0754 96.6505 14.0708 96.642 14.0615C96.6249 14.0615 96.612 14.0615 96.6035 14.0615C96.5949 14.0615 96.5864 14.0615 96.5778 14.0615C96.5778 14.1033 96.5521 14.1311 96.5521 14.1311L96.5008 14.1869L96.4623 14.1729C96.4537 14.1729 96.4451 14.1729 96.4366 14.1729C96.428 14.1729 96.4237 14.1729 96.4237 14.1729V14.1869C96.4066 14.1961 96.3895 14.2054 96.3724 14.2147C96.3596 14.2844 96.3467 14.3819 96.2569 14.3958C96.2397 14.4051 96.2226 14.4097 96.2055 14.4097C96.1884 14.4283 96.1713 14.4376 96.1541 14.4376C96.1541 14.4794 96.1413 14.5212 96.1028 14.549C96.0643 14.5769 95.9873 14.5769 95.9487 14.5908C95.9316 14.5908 95.9145 14.5908 95.8974 14.5908C95.8803 14.5908 95.8632 14.5908 95.846 14.5908C95.8375 14.5908 95.8289 14.5908 95.8204 14.5908L95.7562 14.6047L95.7433 14.5769Z" fill="white"/>
<path fill-rule="evenodd" clip-rule="evenodd" d="M81.9678 16.5686C82.3144 16.1368 83.1361 15.3149 84.3428 15.3149H84.3813C85.4469 15.3289 86.0888 15.9278 86.3712 16.29C86.7563 16.7775 87.2057 17.6689 87.2057 19.1594C87.2057 19.9951 87.0644 20.6358 86.9489 21.0119C86.3712 22.962 84.9847 23.2406 84.2016 23.2406C83.5854 23.2406 83.0462 23.0456 82.584 22.6416C82.4557 22.5163 82.3144 22.3352 82.2246 22.2098L82.109 22.0566C82.109 22.0566 82.0448 22.0705 82.032 22.2098C82.032 22.2934 82.0192 22.3909 82.0192 22.4605C82.032 22.7809 82.0063 23.0873 82.0192 23.3938C82.0063 23.6445 82.032 23.9231 82.0063 24.1738C81.9935 24.5081 81.9935 24.8424 81.9678 25.1906C81.9806 25.2881 81.9678 25.3578 81.9678 25.4553C81.9678 25.5528 81.955 25.6503 81.955 25.7478C81.9293 25.7896 81.955 25.8453 81.9165 25.8731C81.8138 25.9289 81.7624 26.0403 81.7496 26.1517C81.7239 26.7785 81.6982 27.4332 81.6725 28.0879C81.6725 28.2132 81.6597 28.3386 81.6212 28.45L81.4928 28.6172L81.4543 28.8679C81.4415 28.8818 81.4415 28.9097 81.4158 28.9236C81.4029 28.7843 81.4158 28.659 81.4158 28.5197V28.1854L81.3901 28.1436C81.3259 28.5197 81.3131 28.7982 81.2874 29.1743C81.2746 29.1883 81.2489 29.1743 81.2361 29.1604C81.1975 29.049 81.2232 28.9375 81.2104 28.8122C81.1205 28.6868 81.1077 28.6172 81.1205 28.45L81.1334 28.0043C81.1205 27.9625 81.1205 27.8929 81.1205 27.8371C81.082 27.8232 81.0435 27.8093 81.0306 27.7536C81.0306 27.7443 81.0264 27.735 81.0178 27.7257C81.0435 27.475 81.0307 27.2382 81.0563 26.9875C81.0307 26.9178 81.0692 26.8343 81.0563 26.7646C81.0948 26.4164 81.0948 26.0682 81.0948 25.7199C81.0563 25.6921 81.082 25.6085 81.0306 25.6085C80.9665 25.9428 80.9536 26.291 80.9023 26.6253C80.9151 26.695 80.8894 26.7507 80.8894 26.8343C80.9408 26.9039 80.9665 27.0014 80.9665 27.085C80.9408 27.1268 80.9408 27.1686 80.9151 27.1825L80.9279 27.3218C80.9023 27.3914 80.8766 27.4471 80.8509 27.5028C80.8381 27.5168 80.8124 27.5168 80.7996 27.5028C80.7867 27.3636 80.7867 27.2103 80.8124 27.071C80.8124 26.9457 80.8252 26.7925 80.8124 26.6392C80.8381 26.0682 80.8252 25.5389 80.8124 24.9678C80.7996 24.9538 80.7867 24.9399 80.7739 24.9538C80.7225 25.1628 80.7611 25.3856 80.684 25.5667C80.6455 25.3996 80.6198 24.4245 80.6584 24.2156C80.6455 23.8534 80.6712 23.4634 80.6584 23.0873C80.6712 22.8645 80.5685 22.7252 80.5685 22.8923C80.5557 23.1848 80.53 23.4634 80.5556 23.742C80.5556 24.2713 80.53 24.8285 80.5171 25.3578C80.53 25.6085 80.4786 25.8592 80.4915 26.1099C80.5043 26.2214 80.4658 26.3607 80.4915 26.4721C80.4786 26.5139 80.4915 26.5696 80.4529 26.5835C80.4273 26.5557 80.3502 26.5557 80.3631 26.486C80.3502 26.4442 80.3888 26.4025 80.4144 26.3746C80.4273 26.2353 80.4273 26.0682 80.3888 25.9428C80.3631 25.7896 80.4529 25.6503 80.4273 25.4971C80.4016 25.4831 80.4273 25.4274 80.4016 25.4274C80.3759 25.3717 80.3888 25.3299 80.3888 25.2742C80.4401 25.1628 80.4144 24.9956 80.4016 24.8703C80.4016 24.7867 80.3374 24.717 80.3502 24.6195C80.3374 24.3688 80.3374 24.1599 80.3502 23.9231C80.3502 23.742 80.3631 23.547 80.3631 23.352C80.3631 23.157 80.3631 22.9202 80.3502 22.7113C80.3631 22.363 80.3502 22.0148 80.3502 21.6527C80.3374 21.6387 80.3374 21.6248 80.3246 21.6109C80.2861 21.778 80.209 21.6805 80.1705 21.583C80.1962 21.4855 80.1834 21.388 80.1834 21.2905C80.1962 21.2209 80.1962 21.1234 80.1962 21.0537C80.1833 20.6637 80.2347 20.2597 80.209 19.8976C80.2347 19.4658 80.1962 19.0479 80.2475 18.6301L80.2347 18.3793C80.2475 17.9893 80.2475 17.5854 80.2604 17.2093C80.2475 17.0979 80.2475 16.9864 80.2475 16.875C80.2347 16.875 80.2219 16.8611 80.209 16.875C80.1834 16.9586 80.1577 17.0421 80.1577 17.1396C80.132 17.1814 80.1063 17.1954 80.0678 17.1675C80.0293 17.07 80.055 16.9725 80.0293 16.875C80.0421 16.6939 80.0421 16.4989 80.0807 16.3318L80.0935 16.3039C80.1192 16.0114 80.1192 15.691 80.209 15.4264C80.2347 15.3567 80.2989 15.3289 80.3374 15.3149C80.4401 15.3149 80.4786 15.4403 80.53 15.5099C80.607 15.496 80.6969 15.5378 80.7611 15.4682C80.8638 15.4403 80.8252 15.5935 80.8766 15.6492C80.9151 15.7189 80.9793 15.7189 81.0435 15.7189C81.2361 15.705 81.1077 15.3289 81.3259 15.3985C81.3644 15.496 81.4543 15.5378 81.5442 15.5239C81.6854 15.5796 81.8779 15.5657 81.9293 15.7746C81.9678 15.886 81.9807 16.0253 81.9807 16.1507C81.9935 16.29 81.9678 16.5686 81.9678 16.5686ZM83.8165 16.8471C83.4955 16.8471 83.1746 16.9586 82.8793 17.1536C82.3273 17.5714 82.0192 18.3375 82.0192 19.3265C82.0192 19.9394 82.1347 21.0537 82.9563 21.5551C83.1874 21.6944 83.4442 21.7641 83.7266 21.7641C84.009 21.7641 84.253 21.6805 84.3685 21.6109C85.3313 21.0955 85.4084 19.6469 85.4084 19.2151C85.4084 18.7554 85.3313 17.5993 84.5867 17.0839C84.4327 16.9725 84.1888 16.8471 83.8165 16.8471Z" fill="white"/>
<path fill-rule="evenodd" clip-rule="evenodd" d="M67.3584 23.2127C67.0118 23.2127 65.8179 23.1431 65.2145 22.0984C65.1246 21.9452 64.8936 21.5134 64.8936 20.9005C64.8936 20.2737 65.1375 19.8558 65.253 19.6608C65.9463 18.5604 67.4226 18.435 68.4753 18.435C68.8476 18.435 69.2199 18.449 69.5409 18.4629H69.6051V18.3933C69.6051 18.1843 69.5665 17.7665 69.4895 17.5297C69.374 17.1814 69.0145 16.5964 67.9746 16.5964C67.3327 16.5964 66.8706 16.7914 66.5625 16.9168C66.4598 16.9586 66.3571 17.0004 66.2929 17.0143C66.2672 17.0236 66.2458 17.0282 66.2287 17.0282C66.0233 17.0282 65.8821 16.6939 65.7922 16.0114L65.7665 15.8164L65.8436 15.7885C66.7165 15.4682 67.2557 15.3149 68.1544 15.3149C68.3341 15.3149 68.7449 15.3149 69.1942 15.4403C70.4395 15.7467 70.8503 16.5268 70.9787 16.9586C71.1199 17.4043 71.1456 17.864 71.1584 18.7833L71.1841 23.2266H70.401C69.9902 23.2266 69.7463 22.6138 69.6307 22.2655C69.3868 22.6416 68.7321 23.2127 67.3969 23.2127H67.3584ZM68.8861 19.5494C68.3983 19.5494 67.6922 19.5912 67.2044 19.9115C66.9733 20.0647 66.8578 20.2876 66.8064 20.3851C66.7936 20.413 66.678 20.608 66.678 20.9005C66.678 21.0398 66.7165 21.2069 66.7679 21.3601C67.0246 21.9452 67.6152 22.0148 67.8591 22.0148C68.0003 22.0148 68.7449 21.973 69.2328 21.2626C69.5794 20.7612 69.6051 20.2737 69.6564 19.7026V19.5772L69.5152 19.5633C69.3226 19.5633 69.1172 19.5494 68.8861 19.5494Z" fill="white"/>
<path fill-rule="evenodd" clip-rule="evenodd" d="M90.3387 23.2127C89.9921 23.2127 88.7982 23.1431 88.1948 22.0984C88.105 21.9452 87.8867 21.5134 87.8867 20.9005C87.8867 20.2737 88.1306 19.8558 88.2333 19.6608C88.9266 18.5604 90.4029 18.435 91.4556 18.435C91.8279 18.435 92.2002 18.449 92.5212 18.4629H92.5854V18.3933C92.5854 18.1843 92.5597 17.7665 92.4698 17.5297C92.3543 17.1814 91.9948 16.5964 90.955 16.5964C90.3131 16.5964 89.8509 16.7914 89.5428 16.9168C89.4401 16.9586 89.3374 17.0004 89.2732 17.0143C89.2475 17.0236 89.2261 17.0282 89.209 17.0282C89.0036 17.0282 88.8624 16.6939 88.7725 16.0114L88.7469 15.8164L88.8239 15.7885C89.6969 15.4682 90.2489 15.3149 91.1347 15.3149C91.3144 15.3149 91.7252 15.3149 92.1746 15.4403C93.4198 15.7467 93.8306 16.5268 93.959 16.9586C94.1131 17.4043 94.1259 17.864 94.1388 18.7833L94.1644 23.2266H93.3813C92.9705 23.2266 92.7266 22.6138 92.6239 22.2655C92.3671 22.6416 91.7124 23.2127 90.3901 23.2127H90.3387ZM91.8536 19.5494C91.3658 19.5494 90.6597 19.5912 90.1847 19.9115C89.9408 20.0647 89.8252 20.2876 89.7739 20.3851C89.761 20.413 89.6455 20.608 89.6455 20.9005C89.6455 21.0398 89.684 21.2069 89.7482 21.3601C89.9921 21.9452 90.5827 22.0148 90.8266 22.0148C90.9678 22.0148 91.7124 21.973 92.2002 21.2626C92.5469 20.7612 92.5854 20.2737 92.6239 19.7026L92.6367 19.5772L92.4955 19.5633C92.3029 19.5633 92.0847 19.5494 91.8536 19.5494Z" fill="white"/>
<path d="M58.6801 23.2824C58.128 23.2824 57.6915 23.2406 56.7159 22.9898L56.6132 22.9481L56.6388 22.6555V22.6416C56.7287 22.0427 57.0882 21.6944 57.6274 21.6944L57.6659 21.7084H57.6787C57.944 21.7734 58.2008 21.8059 58.449 21.8059C59.3605 21.8059 59.7713 21.3323 59.7713 20.9005C59.7584 20.4965 59.4632 20.2876 59.2449 20.1762C58.9882 20.0369 58.7186 19.9394 58.449 19.8419C58.2051 19.7583 57.9868 19.6747 57.7557 19.5633C57.3064 19.3404 56.5361 18.7972 56.5361 17.6272C56.5361 17.46 56.5618 17.0143 56.8057 16.5546C57.024 16.1785 57.7044 15.3149 59.3733 15.3149C59.9895 15.3149 60.4902 15.3985 61.1193 15.5517L61.1963 15.5796V15.6632C61.1963 15.7607 61.1834 15.9 61.1706 16.0393C61.1449 16.3735 60.8882 16.7775 60.6442 16.7775C60.6271 16.7775 60.6143 16.7775 60.6057 16.7775C60.5415 16.7636 60.4774 16.7496 60.4003 16.7357C60.2334 16.7078 60.028 16.6521 59.6301 16.6521C59.1422 16.6521 58.8341 16.7775 58.6672 16.875C58.2821 17.0979 58.2436 17.4461 58.2436 17.5575C58.2436 17.9754 58.5774 18.1286 58.8213 18.2261C59.0652 18.3375 59.3219 18.4211 59.5659 18.5047C59.8483 18.6022 60.1436 18.6997 60.4132 18.839C61.1193 19.2011 61.5172 19.8976 61.5172 20.7891C61.5172 21.2626 61.3888 21.9452 60.8111 22.4745C60.3105 22.962 59.6301 23.2824 58.6801 23.2824Z" fill="white"/>
</svg>
