<svg width="120" height="40" viewBox="0 0 120 40" fill="none" xmlns="http://www.w3.org/2000/svg">
<path d="M30.7473 19.6902C27.6772 17.4213 23.1338 14.7686 22.0427 14.1389C22.0851 14.9423 22.0218 15.7646 21.8562 16.5875C21.7472 17.1294 21.5978 17.6416 21.416 18.128C24.5742 20.2395 28.7636 23.0225 30.2539 23.936L30.3697 24.0043V23.9995C30.3697 20.6111 30.7432 19.703 30.7432 19.703C30.7439 19.6989 30.7459 19.6949 30.7473 19.6902Z" fill="white"/>
<path d="M22.4192 9.2706C21.2345 8.18954 19.0301 6.48687 15.054 6.3139C15.0069 6.31188 14.9322 6.30782 14.7787 6.30444C14.7787 6.30444 17.2827 6.73011 19.1674 8.32062C21.6808 10.4415 22.4744 13.5057 21.8558 16.5867C20.8057 21.8163 16.1182 24.4595 12.4316 24.5122C11.1897 24.5298 9.87315 24.1629 8.75781 23.5433C8.75781 23.5433 9.72305 24.4331 10.654 24.9162C11.9281 25.577 13.5308 26.2074 16.1088 26.2142C19.7954 26.2243 24.6929 23.5359 25.7281 18.3022C26.5581 14.111 23.7741 10.5071 22.4192 9.2706Z" fill="white"/>
<path d="M30.3675 35.0206L30.3682 23.9992C30.3682 20.6108 30.7418 19.7027 30.7418 19.7027C32.1506 14.948 36.6961 12.565 40.0878 12.6008C41.7841 12.619 43.1653 13.3792 43.9939 13.8785C43.9939 13.8785 41.3863 10.8569 36.377 10.7637C33.1044 10.7029 28.8827 12.9319 27.2517 17.3041C27.2517 17.3041 26.5954 18.7682 26.6271 21.5689L26.652 32.2484C26.652 32.2491 26.5578 35.2578 30.3675 35.0206Z" fill="white"/>
<path d="M18.1437 8.48881C17.3898 8.0422 17.1919 7.98274 16.3465 7.65505C15.5118 7.3314 14.5526 7.11181 13.7281 6.96587C12.3334 6.7179 11.1979 6.82398 10.7139 6.92263C10.3875 6.98952 10.0556 7.08681 9.73456 7.19695C8.96587 7.476 8.35739 7.75842 7.94141 7.9395C7.94141 7.9395 8.41662 11.4509 9.69485 11.0901C10.4373 10.8807 12.9365 8.71449 18.6505 10.3145C18.6505 10.3145 19.5181 10.5685 20.6685 11.1036C20.6705 11.1036 20.6725 11.1036 20.6745 11.1043C20.6759 11.1043 20.6772 11.105 20.6779 11.1057C20.5924 10.9705 19.9368 9.55163 18.1437 8.48881Z" fill="white"/>
<path d="M44.4571 23.398C44.3022 23.5501 42.9803 24.3669 40.6702 24.3014C38.9746 24.2521 37.3908 24.0737 34.9245 22.5562L34.7314 22.4393C33.3986 21.6487 32.4408 20.9792 31.7973 20.4947L31.7253 20.442C31.5684 20.3157 31.4049 20.1873 31.2346 20.0569C31.1457 20.4204 30.9404 21.5251 30.9404 23.9987V24.3271C31.4863 24.6271 32.1628 24.973 32.8743 25.2737C36.1671 26.6676 40.6257 26.5372 43.1458 24.7136C43.9293 24.1656 44.554 23.3028 44.4571 23.398Z" fill="white"/>
<path d="M17.5756 15.5529C17.5756 15.5529 19.0066 16.5164 20.9276 17.8015C21.075 17.388 21.2002 16.9468 21.2951 16.4738C21.4796 15.5536 21.53 14.6651 21.452 13.8212C20.9256 13.5502 20.2902 13.2469 19.6252 12.9813C16.333 11.6624 12.2015 11.6374 9.15568 13.6881C8.62258 14.0205 8.04102 14.661 8.04102 14.661C8.04102 14.661 11.7128 11.8692 17.5756 15.5529Z" fill="white"/>
<path d="M43.7155 14.7332C43.2753 14.4035 42.442 13.8454 41.5286 13.5671C40.4651 13.2427 39.6964 13.2563 39.3235 13.2671C38.7298 13.2846 38.1705 13.3934 37.8891 13.4779L37.8857 13.4792C42.0051 14.9319 42.2064 19.3521 40.6468 21.9115C40.1689 22.6946 39.5914 23.229 39.0489 23.5932H39.0495C40.6636 23.7371 42.543 23.6121 43.8878 22.7534C45.1661 21.9365 45.8708 20.7676 45.9872 19.2014C46.0121 18.8676 45.9967 18.7048 45.9879 18.5838C45.926 17.7197 45.4952 16.4346 44.7837 15.6913C44.3617 15.2488 44.114 15.0312 43.7155 14.7332Z" fill="white"/>
<path d="M13.4617 23.8405C13.5653 23.831 13.9174 23.7716 13.9786 23.7614C13.4058 23.506 13.0349 23.1939 13.0349 23.1939C11.1118 21.5311 10.3586 18.7507 11.8879 15.8596C11.9977 15.6542 12.3854 15.0157 13.1446 14.3522C11.3643 14.0609 9.58929 14.5528 8.36356 15.4474C7.45218 16.1123 6.90965 16.8724 6.66801 17.6582C6.59397 17.8987 6.50579 18.3764 6.5004 18.7967C6.49637 19.0886 6.52127 19.5122 6.6357 19.9196C6.94398 21.1149 7.93816 22.0007 8.95791 22.6615C9.17936 22.8047 9.56101 23.0196 10.0477 23.2513C11.0546 23.7317 12.1377 23.9621 13.4617 23.8405Z" fill="white"/>
<path d="M53.1609 33.7663L54.0158 31.019H54.9569L55.8038 33.7663L56.6586 31.019H57.5996L56.2822 34.9548H55.3333L54.4785 32.428L53.6393 34.9548H52.6905L51.373 31.019H52.314L53.1609 33.7663Z" fill="white"/>
<path d="M58.0853 31.019H58.995V34.9548H58.0853V31.019ZM58.5402 29.3895C58.8461 29.3895 59.0891 29.6336 59.0891 29.9406C59.0891 30.2475 58.8461 30.4995 58.5402 30.4995C58.2344 30.4995 57.9834 30.2475 57.9834 29.9406C57.9834 29.6336 58.2344 29.3895 58.5402 29.3895Z" fill="white"/>
<path d="M59.7949 29.8382H60.7046V31.019H62.0848V31.8849H60.7046V33.5695C60.7046 34.026 60.9242 34.1755 61.2535 34.1755C61.575 34.1755 61.8888 34.097 62.0926 33.9945L62.3514 34.7975C62.0613 34.9548 61.6849 35.0337 61.2535 35.0337C60.4144 35.0337 59.7949 34.6479 59.7949 33.5616V29.8382Z" fill="white"/>
<path d="M62.8213 29.4445H63.731V30.9951C63.9662 30.9716 64.2329 30.9323 64.5152 30.9323C65.5033 30.9323 66.2248 31.4596 66.2248 32.6561V34.9546H65.323V32.5853C65.323 31.9791 64.978 31.7903 64.4525 31.7903C64.1153 31.7903 63.8879 31.8295 63.731 31.8847V34.9546H62.8213V29.4445Z" fill="white"/>
<path fill-rule="evenodd" clip-rule="evenodd" d="M75.1759 34.5792C75.4959 34.3045 75.5634 33.9569 75.5634 33.7138C75.5634 33.2591 75.3492 32.9058 74.9587 32.7185C74.8064 32.6495 74.6452 32.5993 74.4877 32.5504C74.3523 32.5082 74.2119 32.4646 74.0776 32.4086C73.9439 32.3532 73.7609 32.2775 73.7609 32.0636C73.7609 32.0103 73.7775 31.8274 73.9915 31.7145C74.0839 31.6645 74.2508 31.6049 74.5216 31.6049C74.7431 31.6049 74.8581 31.627 74.9506 31.6449C74.9908 31.6527 75.0253 31.6594 75.0642 31.664L75.0817 31.6649C75.2216 31.6649 75.3568 31.4598 75.375 31.29C75.3825 31.2203 75.3865 31.1461 75.3868 31.0959V31.0529L75.3451 31.0425C74.9952 30.9576 74.7249 30.9213 74.3796 30.9213C73.4565 30.9213 73.0823 31.3618 72.9633 31.5532C72.8313 31.784 72.8171 32.0137 72.8171 32.1017C72.8171 32.701 73.2385 32.9785 73.4894 33.0906C73.6127 33.1469 73.7389 33.1895 73.8732 33.2346C74.0175 33.2831 74.1664 33.3331 74.3108 33.4025C74.4316 33.4618 74.5934 33.5651 74.6037 33.7738C74.6037 33.9955 74.3755 34.234 73.8738 34.234C73.7336 34.234 73.5888 34.2171 73.4435 34.1841L73.4383 34.183L73.4181 34.1824C73.1166 34.1824 72.9231 34.3545 72.8729 34.6666L72.8725 34.6701L72.8552 34.8207L72.9115 34.839C73.4509 34.9696 73.6929 34.9926 74.0015 34.9926C74.5238 34.9926 74.8969 34.8263 75.1759 34.5792ZM92.6802 33.0929L92.7583 33.0959L92.7531 33.161C92.7304 33.4531 92.7107 33.7053 92.5208 33.9554C92.2503 34.3228 91.8408 34.3415 91.7613 34.3415C91.627 34.3415 91.2998 34.309 91.1626 34.0084C91.1282 33.9319 91.1076 33.8452 91.1076 33.7761C91.1076 33.6237 91.1715 33.5211 91.1801 33.5078C91.2099 33.4564 91.2723 33.3493 91.4042 33.2665C91.6721 33.103 92.0604 33.0842 92.3292 33.0842C92.4546 33.0842 92.5744 33.0888 92.6802 33.0929ZM91.5143 34.9577C92.2473 34.9577 92.6101 34.6628 92.7479 34.4693C92.8063 34.6501 92.9404 34.9591 93.1731 34.9591H93.6006L93.587 32.6937C93.5787 32.2237 93.5708 31.9877 93.4904 31.7588C93.4165 31.535 93.1908 31.1365 92.5064 30.9803C92.2548 30.9213 92.025 30.9213 91.9272 30.9213C91.4363 30.9213 91.1371 30.995 90.6521 31.1604L90.6104 31.1747L90.6223 31.2727C90.6727 31.6261 90.7503 31.7908 90.8671 31.7908C90.877 31.7908 90.8877 31.7897 90.8985 31.7873C90.9382 31.7788 90.9904 31.7591 91.0506 31.7363C91.2185 31.6725 91.4723 31.5761 91.8295 31.5761C92.4049 31.5761 92.6028 31.8755 92.6691 32.0537C92.7126 32.1695 92.7287 32.3814 92.7315 32.4886L92.7325 32.5275L92.6938 32.5257C92.5161 32.5183 92.3094 32.5102 92.1073 32.5102C91.5272 32.5102 90.7117 32.5755 90.3231 33.1429C90.2657 33.2363 90.1311 33.4553 90.1311 33.7761C90.1311 34.0879 90.2551 34.306 90.3069 34.3838C90.6351 34.9161 91.2952 34.9575 91.4893 34.9573L91.5143 34.9577ZM79.9839 33.0929L80.0618 33.0959L80.0567 33.161C80.0339 33.4531 80.0141 33.7053 79.8244 33.9554C79.5539 34.3228 79.1444 34.3415 79.0648 34.3415C78.9306 34.3415 78.6035 34.309 78.4664 34.0084C78.4318 33.9319 78.4111 33.8452 78.4111 33.7761C78.4111 33.6237 78.475 33.5211 78.4838 33.5078C78.5137 33.4564 78.576 33.3493 78.7077 33.2665C78.9757 33.103 79.3641 33.0842 79.6328 33.0842C79.7583 33.0842 79.878 33.0888 79.9839 33.0929ZM78.8178 34.9577C79.551 34.9577 79.9137 34.6628 80.0513 34.4693C80.1099 34.6501 80.2439 34.9591 80.4767 34.9591H80.9045L80.8909 32.6937C80.8824 32.2237 80.8746 31.9877 80.7939 31.7588C80.7202 31.535 80.4945 31.1365 79.8097 30.9803C79.5584 30.9213 79.3288 30.9213 79.2308 30.9213C78.7399 30.9213 78.4406 30.995 77.9556 31.1604L77.9138 31.1747L77.926 31.2727C77.9765 31.6261 78.0543 31.7908 78.1708 31.7908C78.1807 31.7908 78.1914 31.7897 78.2022 31.7873C78.2419 31.7788 78.2939 31.7591 78.3542 31.7363C78.5221 31.6725 78.7759 31.5761 79.133 31.5761C79.7087 31.5761 79.9063 31.8755 79.9728 32.0537C80.0162 32.1695 80.0325 32.3814 80.0351 32.4886L80.0361 32.5275L79.9975 32.5257C79.8197 32.5183 79.613 32.5102 79.4109 32.5102C78.831 32.5102 78.0151 32.5755 77.6267 33.1429C77.5694 33.2363 77.4347 33.4553 77.4347 33.7761C77.4347 34.0879 77.5587 34.306 77.6107 34.3838C77.9386 34.9161 78.599 34.9575 78.7928 34.9573L78.8178 34.9577ZM88.3132 31.8225C88.7221 32.0886 88.7659 32.6751 88.7658 32.9149C88.7659 33.1348 88.7252 33.8724 88.189 34.1331C88.124 34.1695 87.9921 34.2119 87.8336 34.2119C87.6767 34.2119 87.5372 34.1783 87.4086 34.1094C86.9573 33.8537 86.8902 33.2853 86.8902 32.9691C86.89 32.4643 87.0605 32.0704 87.3692 31.8608C87.528 31.7574 87.7077 31.7028 87.8881 31.7028C88.088 31.7028 88.2298 31.7678 88.3132 31.8225ZM86.8733 31.3455C86.8709 31.284 86.8676 31.2107 86.8451 31.1517C86.8163 31.0478 86.7061 31.0531 86.6288 31.0251C86.5822 31.0291 86.5324 31.0105 86.5097 30.9619C86.3901 30.9272 86.4603 31.1168 86.3505 31.1235C86.3184 31.1225 86.2808 31.128 86.2604 31.0912C86.2321 31.0641 86.2552 30.9811 86.1952 30.9981C86.1587 31.0291 86.1104 31.0121 86.0698 31.0197C86.0428 30.9852 86.018 30.9192 85.9666 30.9213C85.9394 30.9272 85.9044 30.9373 85.8936 30.9729C85.8424 31.109 85.8424 31.2749 85.8323 31.424L85.8222 31.4413C85.7989 31.5249 85.8016 31.6242 85.7964 31.7163C85.8096 31.7667 85.7964 31.8145 85.8177 31.8636C85.8332 31.8776 85.8516 31.869 85.8633 31.8533C85.8633 31.8023 85.881 31.7589 85.8948 31.7144L85.9117 31.7163C85.9157 31.7734 85.9133 31.8299 85.9198 31.8847C85.917 32.082 85.9133 32.2872 85.9084 32.4849L85.9117 32.6103C85.8865 32.8245 85.9054 33.039 85.8948 33.2576C85.9044 33.4465 85.8771 33.651 85.8865 33.8503C85.887 33.8903 85.8843 33.9353 85.8792 33.9718C85.8775 34.0226 85.8843 34.0702 85.8738 34.1242C85.8897 34.174 85.9373 34.2198 85.9554 34.1374C85.9648 34.1413 85.9666 34.1518 85.9722 34.1597C85.9722 34.3451 85.9785 34.522 85.9722 34.6994C85.9785 34.8055 85.9802 34.9237 85.9785 35.0247C85.9785 35.1242 85.9722 35.2283 85.9722 35.3212C85.9636 35.44 85.9627 35.5476 85.9692 35.6718C85.9666 35.723 85.9984 35.7578 86.0016 35.8056C86.0047 35.8698 86.0219 35.9539 85.9925 36.0108C85.9925 36.0346 85.9862 36.0621 85.9984 36.0846C86.0156 36.0895 86.0016 36.1135 86.0135 36.1227C86.0244 36.2007 85.9813 36.2695 85.99 36.3492C86.0156 36.4164 86.0163 36.5011 86.0058 36.572C85.99 36.5842 85.9722 36.6042 85.9802 36.6284C85.9722 36.6645 86.012 36.6602 86.027 36.679C86.051 36.6699 86.0446 36.6424 86.0519 36.6209C86.0334 36.5656 86.0525 36.4954 86.0495 36.438C86.0428 36.3059 86.0698 36.1794 86.065 36.052C86.0698 35.781 86.0853 35.4963 86.0853 35.2283C86.0698 35.0806 86.0871 34.9415 86.0919 34.7926C86.0945 34.7052 86.1474 34.776 86.1437 34.8918C86.1474 35.085 86.1363 35.2794 86.1408 35.4674C86.121 35.5743 86.1309 36.07 86.1521 36.1602C86.1952 36.0632 86.1749 35.9489 86.2052 35.8474C86.2122 35.835 86.222 35.8474 86.2266 35.8492C86.2321 36.1424 86.2403 36.4178 86.2266 36.7081C86.2298 36.7813 86.2232 36.8606 86.2266 36.9267C86.2122 36.9968 86.2129 37.073 86.2196 37.1494H86.2443C86.2599 37.1163 86.2747 37.0892 86.29 37.0567L86.2808 36.9872C86.2979 36.974 86.2955 36.9522 86.3084 36.9362C86.3128 36.8905 86.2986 36.8391 86.2659 36.803C86.2659 36.7606 86.2835 36.7341 86.2738 36.696C86.3046 36.5289 86.3084 36.3492 86.3438 36.1826C86.375 36.1803 86.3618 36.2209 86.3815 36.2355C86.3826 36.4118 86.3789 36.5912 86.3634 36.7683C86.3663 36.8064 86.3468 36.8479 86.3618 36.8811C86.3468 37.0106 86.3569 37.1365 86.3386 37.2636L86.3468 37.2792C86.3516 37.3062 86.3768 37.3121 86.398 37.3214C86.398 37.3478 86.398 37.3813 86.4051 37.4062L86.398 37.6338C86.3867 37.7151 86.398 37.7544 86.4448 37.8179C86.4507 37.8805 86.4386 37.9407 86.4621 37.9968L86.4851 38C86.502 37.8076 86.5106 37.6658 86.5465 37.474L86.5595 37.4942L86.5583 37.6658C86.5623 37.7357 86.5491 37.8061 86.5595 37.8724C86.5727 37.8678 86.5727 37.8554 86.5833 37.8476L86.6029 37.7169L86.6694 37.6301C86.6912 37.5748 86.6983 37.5098 86.7019 37.4433C86.7151 37.1133 86.7322 36.7803 86.7422 36.4566C86.7544 36.4007 86.78 36.3412 86.8334 36.3153C86.8543 36.2972 86.843 36.2733 86.8543 36.2507C86.8582 36.1975 86.8676 36.1534 86.8672 36.0978C86.8676 36.053 86.8733 36.0137 86.8676 35.9676C86.8766 35.789 86.8816 35.6164 86.8862 35.444C86.8982 35.3152 86.8862 35.1773 86.894 35.0504C86.8885 34.8918 86.8999 34.7317 86.89 34.5737C86.8961 34.5341 86.8987 34.4865 86.9021 34.4443C86.9078 34.3709 86.9447 34.3641 86.9447 34.3641L87.0052 34.4397C87.0574 34.505 87.1348 34.5989 87.2072 34.6613C87.4591 34.8673 87.759 34.9718 88.0983 34.9718C88.5285 34.9718 89.2979 34.8235 89.6154 33.8313C89.6797 33.6353 89.7558 33.3116 89.7558 32.8824C89.7558 32.1185 89.5067 31.6637 89.2976 31.4165C89.1409 31.2342 88.7893 30.9274 88.1949 30.9215L88.1786 30.9213C87.5067 30.9213 87.0563 31.3411 86.8676 31.5589C86.8676 31.5589 86.8764 31.4162 86.8733 31.3455ZM94.4844 30.5528L94.5204 30.5459L94.5308 30.5473C94.54 30.5486 94.5487 30.5498 94.5578 30.5498C94.5685 30.5498 94.5786 30.5484 94.5882 30.5455C94.6065 30.5443 94.6513 30.5399 94.671 30.5292C94.6942 30.5149 94.7011 30.4918 94.7021 30.4707C94.7113 30.4677 94.7212 30.4627 94.7303 30.4547C94.7381 30.4544 94.7481 30.4537 94.7597 30.4508C94.8078 30.4445 94.8168 30.3914 94.821 30.3541C94.8304 30.3521 94.8397 30.3479 94.8479 30.3419L94.8528 30.3349H94.8549L94.8741 30.3324L94.8937 30.3406L94.9193 30.3159C94.9239 30.3113 94.9347 30.299 94.9382 30.2808L94.939 30.2806L94.9475 30.2808L94.9684 30.279L94.9906 30.2829C95.0056 30.2829 95.0198 30.2779 95.0282 30.2713C95.0418 30.2635 95.0503 30.2534 95.0558 30.2431L95.0801 30.2324C95.1786 30.1823 95.2409 30.071 95.2656 29.9018V29.8992L95.27 29.8853L95.2668 29.8713C95.262 29.8493 95.2516 29.8171 95.2294 29.7994L95.2255 29.7897L95.2366 29.7679L95.211 29.7429L95.2003 29.728L95.1945 29.7154C95.1897 29.7047 95.1713 29.6478 95.1694 29.6402L95.1671 29.6276L95.161 29.6182L95.1468 29.5922C95.1418 29.5791 95.1316 29.5689 95.1023 29.5398C95.0909 29.5282 95.0708 29.5081 95.063 29.4989C95.055 29.4803 95.0391 29.4648 95.0157 29.4438L95.0038 29.4329L94.9962 29.4253L94.9836 29.4048L94.968 29.3775H94.9602L94.9564 29.3723C94.9526 29.3679 94.9464 29.3619 94.9363 29.3573L94.9332 29.3505C94.9346 29.3386 94.9334 29.3243 94.9237 29.3101L94.9059 29.2856L94.8727 29.2857C94.8664 29.2798 94.8586 29.2742 94.8479 29.2693L94.8443 29.2657C94.8361 29.2547 94.8259 29.2486 94.8177 29.2451L94.7815 29.2305L94.7753 29.2379C94.7635 29.2287 94.7499 29.2248 94.7374 29.2248C94.7214 29.2248 94.7086 29.2309 94.6979 29.2381L94.6953 29.2376H94.6883C94.6617 29.2376 94.6433 29.2515 94.6287 29.2625C94.6108 29.2687 94.5897 29.2825 94.5564 29.3045C94.5412 29.3145 94.5169 29.3308 94.5061 29.3361L94.5004 29.3363L94.49 29.3419C94.4805 29.3469 94.4712 29.3549 94.4646 29.3652C94.4539 29.3661 94.4431 29.3699 94.4311 29.3772C94.4063 29.3944 94.4008 29.417 94.3999 29.4297C94.3937 29.4394 94.3892 29.4495 94.3862 29.459L94.3723 29.4574L94.3594 29.4581L94.3142 29.4737V29.4993L94.3035 29.5173L94.3022 29.5178L94.2978 29.5203C94.2883 29.5256 94.2808 29.5325 94.2751 29.5413C94.2568 29.5363 94.2383 29.5317 94.2217 29.5317C94.1946 29.5317 94.1763 29.544 94.1659 29.5587C94.1581 29.5678 94.153 29.5773 94.1489 29.5861C94.1244 29.5976 94.1129 29.6193 94.1058 29.6344L94.0762 29.6554L94.0903 29.6899C94.0911 29.6998 94.0922 29.7193 94.0939 29.7432C94.1038 29.8948 94.1101 29.9404 94.1249 29.965L94.1284 29.9708L94.1331 29.9757L94.1365 29.9796C94.1349 30.0008 94.1397 30.0224 94.1505 30.0402C94.1398 30.057 94.1299 30.077 94.1345 30.101L94.1389 30.1242L94.1489 30.1304V30.1387L94.1589 30.1558C94.1667 30.1745 94.1791 30.1851 94.1869 30.1921L94.1873 30.1923C94.1907 30.203 94.1976 30.2209 94.2156 30.2364L94.2194 30.2395L94.2314 30.2465C94.2488 30.2581 94.2813 30.2703 94.3075 30.2761C94.3201 30.2953 94.3396 30.3102 94.362 30.3176L94.3644 30.3233L94.3664 30.329L94.3713 30.3351C94.3764 30.3436 94.3848 30.3746 94.3902 30.3953C94.4029 30.4436 94.4133 30.4775 94.4295 30.5006C94.4357 30.515 94.4481 30.531 94.4745 30.5376L94.4844 30.5528ZM76.4143 30.5528L76.4538 30.5459L76.4607 30.5473C76.4698 30.5486 76.4786 30.5498 76.4877 30.5498C76.4984 30.5498 76.5084 30.5484 76.5182 30.5455C76.5364 30.5443 76.5812 30.5399 76.6008 30.5292C76.6241 30.5149 76.6309 30.4918 76.6319 30.4707C76.6411 30.4677 76.6511 30.4627 76.6601 30.4547C76.668 30.4544 76.6779 30.4537 76.6895 30.4508C76.7377 30.4445 76.7465 30.3914 76.7508 30.3541C76.7602 30.3521 76.7696 30.3479 76.7778 30.3419L76.7828 30.3349H76.7848L76.8039 30.3324L76.8235 30.3406L76.8492 30.3159C76.854 30.3113 76.8646 30.299 76.8681 30.2808L76.8689 30.2806L76.8773 30.2808L76.8983 30.279L76.9204 30.2829C76.9354 30.2829 76.9497 30.2779 76.9583 30.2713C76.9718 30.2635 76.9801 30.2534 76.9857 30.2431L77.0099 30.2324C77.1084 30.1823 77.1708 30.071 77.1956 29.9018L77.1955 29.8992L77.1999 29.8853L77.1967 29.8713C77.1921 29.8493 77.1814 29.8171 77.1593 29.7994L77.1554 29.7897L77.1665 29.7679L77.141 29.7429L77.1302 29.728L77.1244 29.7154C77.1197 29.7047 77.1014 29.6478 77.0994 29.6402L77.0969 29.6276L77.091 29.6182L77.0767 29.5922C77.0718 29.5791 77.0615 29.5689 77.0323 29.5398C77.0207 29.5282 77.0007 29.5081 76.9929 29.4989C76.9849 29.4803 76.9689 29.4648 76.9455 29.4438L76.9336 29.4329L76.926 29.4253L76.9136 29.4048L76.8979 29.3775H76.8902L76.8863 29.3723C76.8826 29.3679 76.8762 29.3619 76.8661 29.3573L76.863 29.3505C76.8644 29.3386 76.8632 29.3243 76.8536 29.3101L76.8357 29.2856L76.8027 29.2857C76.7963 29.2798 76.7884 29.2742 76.7778 29.2693L76.7741 29.2657C76.766 29.2547 76.7558 29.2486 76.7475 29.2451L76.7115 29.2305L76.7051 29.2379C76.6934 29.2287 76.6798 29.2248 76.6674 29.2248C76.6513 29.2248 76.6387 29.2309 76.6277 29.2381L76.6252 29.2376H76.6181C76.5916 29.2376 76.5732 29.2515 76.5587 29.2625C76.5406 29.2687 76.5196 29.2825 76.4862 29.3045C76.471 29.3145 76.4468 29.3308 76.436 29.3361L76.4303 29.3363L76.4199 29.3419C76.4103 29.3469 76.401 29.3549 76.3944 29.3652C76.3837 29.3661 76.373 29.3699 76.3612 29.3772C76.3361 29.3944 76.3309 29.417 76.3299 29.4297C76.3236 29.4394 76.3191 29.4495 76.3162 29.459L76.3022 29.4574L76.2893 29.4581L76.2443 29.4737V29.4993L76.2333 29.5173L76.2321 29.5178L76.2277 29.5203C76.2181 29.5256 76.2106 29.5325 76.2049 29.5413C76.1867 29.5363 76.1683 29.5317 76.1515 29.5317C76.1244 29.5317 76.1061 29.544 76.0957 29.5587C76.0879 29.5678 76.0829 29.5773 76.0787 29.5861C76.0544 29.5976 76.0427 29.6193 76.0356 29.6344L76.006 29.6554L76.0201 29.6899C76.0211 29.6998 76.022 29.7193 76.0238 29.7432C76.0336 29.8948 76.04 29.9404 76.0548 29.965L76.0584 29.9708L76.0631 29.9757L76.0665 29.9796C76.0647 30.0008 76.0696 30.0224 76.0803 30.0402C76.0697 30.057 76.0599 30.077 76.0643 30.101L76.0688 30.1242L76.0787 30.1304V30.1387L76.0887 30.1558C76.0967 30.1745 76.109 30.1851 76.1167 30.1921L76.1171 30.1923C76.1207 30.203 76.1275 30.2209 76.1455 30.2364L76.1492 30.2395L76.1612 30.2465C76.1786 30.2581 76.2111 30.2703 76.2373 30.2761C76.25 30.2953 76.2696 30.3102 76.2918 30.3176L76.2942 30.3233L76.2963 30.329L76.3012 30.3351C76.3062 30.3436 76.3147 30.3746 76.32 30.3953C76.3328 30.4436 76.3431 30.4775 76.3594 30.5006C76.3655 30.515 76.3779 30.531 76.4044 30.5376L76.4143 30.5528ZM95.1477 34.9577L95.1462 31.0189H94.1984V34.2679C94.1984 34.7096 94.6299 34.9561 94.9281 34.9577H95.1477ZM77.0775 34.9577L77.0762 31.0189H76.1283V34.2679C76.1283 34.7096 76.5597 34.9561 76.858 34.9577H77.0775ZM71.3762 33.0929L71.4544 33.0959L71.4492 33.161C71.4264 33.4531 71.4068 33.7053 71.217 33.9554C70.9463 34.3228 70.5368 34.3415 70.4573 34.3415C70.3232 34.3415 69.9961 34.309 69.8588 34.0084C69.8243 33.9319 69.8037 33.8452 69.8037 33.7761C69.8037 33.6237 69.8675 33.5211 69.8763 33.5078C69.9062 33.4564 69.9686 33.3493 70.1003 33.2665C70.368 33.103 70.7565 33.0842 71.0254 33.0842C71.1507 33.0842 71.2704 33.0888 71.3762 33.0929ZM70.2104 34.9577C70.9435 34.9577 71.3062 34.6628 71.4439 34.4693C71.5023 34.6501 71.6366 34.9591 71.8692 34.9591H72.297L72.2835 32.6937C72.2749 32.2237 72.2671 31.9877 72.1867 31.7588C72.1129 31.535 71.8869 31.1365 71.2022 30.9803C70.951 30.9213 70.7213 30.9213 70.6234 30.9213C70.1325 30.9213 69.8334 30.995 69.3481 31.1604L69.3063 31.1747L69.3185 31.2727C69.369 31.6261 69.4466 31.7908 69.5633 31.7908C69.5733 31.7908 69.5839 31.7897 69.5947 31.7873C69.6343 31.7788 69.6865 31.7591 69.7469 31.7363C69.9147 31.6725 70.1684 31.5761 70.5256 31.5761C71.1012 31.5761 71.2987 31.8755 71.3651 32.0537C71.4086 32.1695 71.4248 32.3814 71.4277 32.4886L71.4286 32.5275L71.3898 32.5257C71.2121 32.5183 71.0056 32.5102 70.8033 32.5102C70.2234 32.5102 69.4077 32.5755 69.0193 33.1429C68.9618 33.2363 68.8271 33.4553 68.8271 33.7761C68.8271 34.0879 68.951 34.306 69.0031 34.3838C69.3311 34.9161 69.9914 34.9575 70.1853 34.9573L70.2104 34.9577ZM101.563 34.1759C100.892 34.2316 100.942 33.7612 100.932 33.449L100.931 33.4202V31.6187L101.567 31.613C101.885 31.6001 101.805 30.9195 101.805 30.9195H100.937V29.8376H100.75L100.744 29.8392C100.256 29.9574 100.018 30.2092 100.018 30.6083L100.015 30.8832L100.014 33.247C100.008 33.709 99.9997 34.2837 100.335 34.6281C100.634 34.934 101.136 34.9577 101.283 34.9577C101.513 34.9577 101.673 34.9189 101.876 34.8701C101.919 34.1677 101.563 34.1759 101.563 34.1759ZM104.628 34.5792C104.948 34.3045 105.016 33.9569 105.016 33.7138C105.016 33.2591 104.801 32.9058 104.411 32.7185C104.259 32.6495 104.097 32.5993 103.94 32.5504C103.804 32.5082 103.664 32.4646 103.53 32.4086C103.396 32.3532 103.213 32.2775 103.213 32.0636C103.213 32.0103 103.23 31.8274 103.444 31.7145C103.536 31.6645 103.703 31.6049 103.974 31.6049C104.195 31.6049 104.31 31.627 104.403 31.6449C104.443 31.6527 104.478 31.6594 104.516 31.664L104.534 31.6649C104.674 31.6649 104.809 31.4598 104.827 31.29C104.835 31.2203 104.839 31.1461 104.839 31.0959L104.839 31.0529L104.797 31.0425C104.447 30.9576 104.177 30.9213 103.831 30.9213C102.909 30.9213 102.534 31.3618 102.415 31.5532C102.284 31.784 102.269 32.0137 102.269 32.1017C102.269 32.701 102.69 32.9785 102.942 33.0906C103.065 33.1469 103.191 33.1895 103.325 33.2346C103.469 33.2831 103.619 33.3331 103.763 33.4025C103.884 33.4618 104.046 33.5651 104.056 33.7738C104.056 33.9955 103.828 34.234 103.326 34.234C103.186 34.234 103.041 34.2171 102.896 34.1841L102.89 34.183L102.87 34.1824C102.569 34.1824 102.375 34.3545 102.325 34.6666L102.325 34.6701L102.307 34.8207L102.364 34.839C102.903 34.9696 103.145 34.9926 103.454 34.9926C103.976 34.9926 104.349 34.8263 104.628 34.5792ZM95.8485 34.9566L96.7839 34.9548L96.7942 33.0541C96.8007 32.747 96.8095 32.3648 97.0193 32.0589C97.2474 31.7167 97.5947 31.6798 97.7336 31.6798C97.9453 31.6798 98.0746 31.7463 98.1221 31.7759C98.4399 31.9606 98.4926 32.3597 98.5022 32.7245L98.5062 34.4958L98.5073 34.5013C98.5457 34.6938 98.6633 34.9503 99.2406 34.9547H99.4198L99.4199 32.9767C99.4117 32.3164 99.3917 31.8656 99.3659 31.7705C99.2535 31.374 98.9609 31.0829 98.5605 30.972C98.3831 30.9305 98.1815 30.9213 98.1188 30.9213C97.6797 30.9213 97.4433 31.0349 97.255 31.1416C97.0002 31.2943 96.8889 31.446 96.8078 31.5567L96.7268 31.666L96.7175 31.0189H95.8445L95.8485 34.9566ZM81.7185 31.0189H82.5914L82.6009 31.666L82.6817 31.5567C82.7629 31.446 82.8742 31.2943 83.129 31.1416C83.3172 31.0349 83.5538 30.9213 83.9928 30.9213C84.0554 30.9213 84.257 30.9305 84.4344 30.972C84.8349 31.0829 85.1275 31.374 85.2397 31.7705C85.2655 31.8656 85.2856 32.3164 85.2938 32.9767L85.2936 34.9547H85.1145C84.5372 34.9503 84.4196 34.6938 84.3811 34.5013L84.3801 34.4958L84.3761 32.7245C84.3665 32.3597 84.3137 31.9606 83.996 31.7759C83.9485 31.7463 83.8192 31.6798 83.6075 31.6798C83.4688 31.6798 83.1213 31.7167 82.8932 32.0589C82.6833 32.3648 82.6746 32.747 82.6681 33.0541L82.6578 34.9548L81.7224 34.9566L81.7185 31.0189Z" fill="white"/>
<path d="M54.3141 10.8013H52.13V14.202H54.3266C56.1136 14.202 56.945 13.6041 56.945 12.5328C56.945 11.4615 56.0887 10.8013 54.3141 10.8013ZM54.1652 6.97715H52.13V10.1411H54.1652C55.8034 10.1411 56.5604 9.4809 56.5604 8.48433C56.5604 7.45047 55.8157 6.97715 54.1652 6.97715ZM54.3638 14.8997H51.373V6.30452H54.2149C56.3618 6.30452 57.305 7.07681 57.305 8.39721C57.305 9.56822 56.5851 10.2283 55.5551 10.4152V10.4401C56.821 10.5771 57.7145 11.337 57.7145 12.5951C57.7145 13.9778 56.6099 14.8997 54.3638 14.8997Z" fill="white"/>
<path d="M64.5701 6.97715H59.966V10.1287H64.1481V10.8138H59.966V14.202H64.7065V14.8997H59.209V6.30452H64.5701V6.97715Z" fill="white"/>
<path d="M69.3815 7.1142H69.3566L67.7681 11.2622H70.9575L69.3815 7.1142ZM73.1664 14.8997H72.3598L71.2056 11.8975H67.52L66.3658 14.8997H65.584L68.9967 6.30452H69.7786L73.1664 14.8997Z" fill="white"/>
<path d="M80.774 11.125C80.774 13.7658 79.6324 15.0488 77.2745 15.0488C74.9291 15.0488 73.7998 13.8157 73.7998 11.125V6.3043H74.5443V11.1126C74.5443 13.3548 75.4626 14.3389 77.3117 14.3389C79.1359 14.3389 80.0419 13.3672 80.0419 11.1126V6.3043H80.774V11.125Z" fill="white"/>
<path d="M89.2522 6.97715H85.9139V14.8997H85.1694V6.97715H81.8311V6.30452H89.2522V6.97715Z" fill="white"/>
<path d="M91.1597 14.8994H90.415V6.30427H91.1597V14.8994Z" fill="white"/>
<path d="M98.5278 6.97715H93.9113V10.5397H98.1183V11.2249H93.9113V14.8997H93.1543V6.30452H98.5278V6.97715Z" fill="white"/>
<path d="M106.614 11.125C106.614 13.7658 105.472 15.0488 103.114 15.0488C100.769 15.0488 99.6396 13.8157 99.6396 11.125V6.3043H100.384V11.1126C100.384 13.3548 101.303 14.3389 103.152 14.3389C104.976 14.3389 105.882 13.3672 105.882 11.1126V6.3043H106.614V11.125Z" fill="white"/>
<path d="M109.246 14.202H114V14.8997H108.489V6.30452H109.246V14.202Z" fill="white"/>
<path d="M58.2232 26.3596H57.4786V22.2739H52.1299V26.3596H51.373V17.7646H52.1299V21.5887H57.4786V17.7646H58.2232V26.3596Z" fill="white"/>
<path d="M63.7779 18.3125C61.8048 18.3125 60.5017 19.6579 60.5017 22.062C60.5017 24.4661 61.8048 25.799 63.7904 25.799C65.7635 25.799 67.0665 24.4661 67.0665 22.062C67.0665 19.6579 65.7635 18.3125 63.7779 18.3125ZM63.7779 26.509C61.3704 26.509 59.7324 24.9395 59.7324 22.062C59.7324 19.1845 61.3704 17.6149 63.7779 17.6149C66.1854 17.6149 67.8235 19.1845 67.8235 22.062C67.8235 24.9395 66.1854 26.509 63.7779 26.509Z" fill="white"/>
<path d="M78.206 26.3596H77.4489V19.2593H77.4242L74.1232 26.3596H73.4157L70.1024 19.2593H70.09V26.3596H69.333V17.7646H70.2264L73.7633 25.3382H73.7881L77.3249 17.7646H78.206V26.3596Z" fill="white"/>
<path d="M85.5104 18.4372H80.9064V21.5887H85.0885V22.2739H80.9064V25.6619H85.6469V26.3596H80.1494V17.7646H85.5104V18.4372Z" fill="white"/>
<path d="M91.8844 19.0225C91.5369 18.7858 90.8296 18.3001 89.6258 18.3001C88.3973 18.3001 87.5162 18.761 87.5162 19.6827C87.5162 20.7291 88.3228 21.0654 89.9733 21.6136C91.6238 22.1616 92.5421 22.8467 92.5421 24.1672C92.5421 25.637 91.4129 26.509 89.5141 26.509C87.9009 26.509 87.0694 25.9361 86.6475 25.637L86.9453 24.952C87.2928 25.2135 88.1118 25.799 89.539 25.799C90.904 25.799 91.7852 25.2759 91.7852 24.2543C91.7852 23.2702 91.053 22.772 89.4521 22.2363C87.8512 21.6883 86.7716 21.1402 86.7716 19.7326C86.7716 18.3872 87.9506 17.6149 89.6258 17.6149C91.0778 17.6149 91.7852 18.1132 92.1824 18.3748L91.8844 19.0225Z" fill="white"/>
</svg>
